<svg width="434" height="68" viewBox="0 0 434 68" fill="none" xmlns="http://www.w3.org/2000/svg">
<path fill-rule="evenodd" clip-rule="evenodd" d="M10.25 12V52.875C13 52.875 19.325 52.95 22.625 53.25C28.625 53.7955 31.625 54.375 35.375 55.875C35.0996 55.6389 34.82 55.3818 34.5235 55.1093C32.9364 53.6501 30.867 51.7473 26.375 50.25C22.5852 48.9867 18.618 48.876 15.8176 48.7979C15.2928 48.7832 14.809 48.7697 14.375 48.75V36.75C20 37.5 26.1796 39.1947 29.75 42C35 46.125 36.875 49.875 38 52.125C39.5625 55.25 40.0833 57.5938 40.4306 59.1562C40.5 59.4688 40.5625 59.75 40.625 60H44H47.375C47.4375 59.75 47.5 59.4688 47.5694 59.1562C47.9167 57.5938 48.4375 55.25 50 52.125C51.125 49.875 53 46.125 58.25 42C61.8204 39.1947 68 37.5 73.625 36.75V48.75C73.191 48.7697 72.7072 48.7832 72.1824 48.7979C69.382 48.876 65.4148 48.9867 61.625 50.25C57.133 51.7473 55.0636 53.6501 53.4765 55.1093C53.18 55.3818 52.9004 55.6389 52.625 55.875C56.375 54.375 59.375 53.7955 65.375 53.25C68.675 52.95 75 52.875 77.75 52.875V12L72.875 15.75C71.625 15.75 68.3 15.825 65 16.125C60.875 16.5 56.375 17.625 53.375 19.125C49.04 21.2925 45.25 25.375 44 27.375C42.75 25.375 38.96 21.2925 34.625 19.125C31.625 17.625 27.125 16.5 23 16.125C19.7 15.825 16.375 15.75 15.125 15.75L10.25 12ZM44 41.625C43.7986 40.8196 43.6378 39.9872 43.4704 39.1204C43.0142 36.7588 42.5088 34.1426 41 31.125C40.25 29.625 36.875 24 30.875 21.75C27.0462 20.3142 20 19.5 14.375 19.875V32.625C17 33 22.775 33.975 24.875 34.875C29.25 36.75 32.2204 38.791 34.625 40.875C39.7331 45.302 42.058 50.8629 43.5654 54.4686C43.718 54.8335 43.8622 55.1784 44 55.5C44.1378 55.1784 44.282 54.8335 44.4346 54.4686C45.942 50.8629 48.2669 45.302 53.375 40.875C55.7796 38.791 58.75 36.75 63.125 34.875C65.225 33.975 71 33 73.625 32.625V19.875C68 19.5 60.9538 20.3142 57.125 21.75C51.125 24 47.75 29.625 47 31.125C45.4912 34.1426 44.9858 36.7588 44.5296 39.1204C44.3622 39.9872 44.2014 40.8196 44 41.625Z" fill="#000052"/>
<path d="M391.269 14.5323H397.942L408.113 32.2319H408.531L418.703 14.5323H425.376L411.25 38.1825V53.4676H405.395V38.1825L391.269 14.5323Z" fill="#000052"/>
<path d="M360.644 53.4676V14.5323H374.522C377.538 14.5323 380.042 15.0519 382.031 16.0912C384.034 17.1305 385.529 18.569 386.518 20.4068C387.507 22.2319 388.001 24.3422 388.001 26.7376C388.001 29.1204 387.5 31.218 386.499 33.0304C385.51 34.8301 384.015 36.2306 382.012 37.2319C380.023 38.2332 377.519 38.7338 374.503 38.7338H363.99V33.6768H373.971C375.872 33.6768 377.418 33.4043 378.609 32.8593C379.813 32.3143 380.694 31.5221 381.252 30.4829C381.81 29.4436 382.088 28.1951 382.088 26.7376C382.088 25.2674 381.803 23.9936 381.233 22.9163C380.675 21.839 379.794 21.0152 378.59 20.4448C377.399 19.8618 375.834 19.5703 373.894 19.5703H366.518V53.4676H360.644ZM379.864 35.9011L389.484 53.4676H382.792L373.362 35.9011H379.864Z" fill="#000052"/>
<path d="M325.913 53.4676H319.677L333.688 14.5323H340.475L354.487 53.4676H348.251L337.243 21.6045H336.939L325.913 53.4676ZM326.958 38.2205H347.186V43.1635H326.958V38.2205Z" fill="#000052"/>
<path d="M313.518 14.5323V53.4676H308.119L288.328 24.9125H287.967V53.4676H282.092V14.5323H287.529L307.339 43.1254H307.7V14.5323H313.518Z" fill="#000052"/>
<path d="M274.233 34C274.233 38.1572 273.472 41.7313 271.951 44.7224C270.43 47.7009 268.345 49.9949 265.696 51.6046C263.06 53.2015 260.063 54 256.704 54C253.333 54 250.323 53.2015 247.674 51.6046C245.037 49.9949 242.959 47.6945 241.438 44.7034C239.917 41.7123 239.156 38.1445 239.156 34C239.156 29.8428 239.917 26.275 241.438 23.2966C242.959 20.3055 245.037 18.0114 247.674 16.4144C250.323 14.8048 253.333 14 256.704 14C260.063 14 263.06 14.8048 265.696 16.4144C268.345 18.0114 270.43 20.3055 271.951 23.2966C273.472 26.275 274.233 29.8428 274.233 34ZM268.415 34C268.415 30.8314 267.902 28.1635 266.875 25.9962C265.861 23.8162 264.467 22.1686 262.693 21.0532C260.931 19.9252 258.935 19.3612 256.704 19.3612C254.461 19.3612 252.458 19.9252 250.696 21.0532C248.935 22.1686 247.541 23.8162 246.514 25.9962C245.5 28.1635 244.993 30.8314 244.993 34C244.993 37.1686 245.5 39.8428 246.514 42.0228C247.541 44.1901 248.935 45.8378 250.696 46.9658C252.458 48.0811 254.461 48.6388 256.704 48.6388C258.935 48.6388 260.931 48.0811 262.693 46.9658C264.467 45.8378 265.861 44.1901 266.875 42.0228C267.902 39.8428 268.415 37.1686 268.415 34Z" fill="#000052"/>
<path d="M231.32 14.5323V53.4676H225.446V14.5323H231.32Z" fill="#000052"/>
<path d="M188.12 19.5893V14.5323H218.253V19.5893H206.104V53.4676H200.249V19.5893H188.12Z" fill="#000052"/>
<path d="M182.475 27.1939H176.543C176.315 25.9265 175.891 24.8112 175.27 23.8479C174.649 22.8847 173.888 22.0672 172.988 21.3954C172.088 20.7237 171.081 20.2167 169.965 19.8745C168.863 19.5323 167.69 19.3612 166.448 19.3612C164.205 19.3612 162.196 19.9252 160.422 21.0532C158.66 22.1812 157.266 23.8352 156.239 26.0152C155.225 28.1952 154.718 30.8568 154.718 34C154.718 37.1686 155.225 39.8428 156.239 42.0228C157.266 44.2028 158.666 45.8504 160.441 46.9658C162.215 48.0811 164.211 48.6388 166.429 48.6388C167.659 48.6388 168.825 48.474 169.927 48.1445C171.043 47.8023 172.05 47.3016 172.95 46.6426C173.85 45.9835 174.611 45.1787 175.232 44.2281C175.865 43.2649 176.303 42.1622 176.543 40.9202L182.475 40.9392C182.158 42.853 181.543 44.6147 180.631 46.2243C179.731 47.8213 178.571 49.2028 177.152 50.3688C175.745 51.5222 174.135 52.4157 172.323 53.0494C170.51 53.6831 168.533 54 166.391 54C163.02 54 160.016 53.2015 157.38 51.6046C154.744 49.9949 152.665 47.6945 151.144 44.7034C149.636 41.7123 148.882 38.1445 148.882 34C148.882 29.8428 149.642 26.275 151.163 23.2966C152.684 20.3055 154.763 18.0114 157.399 16.4144C160.035 14.8048 163.033 14 166.391 14C168.457 14 170.384 14.2978 172.171 14.8935C173.97 15.4766 175.586 16.3384 177.019 17.4791C178.451 18.6071 179.636 19.9886 180.574 21.6236C181.512 23.2459 182.145 25.1027 182.475 27.1939Z" fill="#000052"/>
<path d="M141.046 14.5323V53.4676H135.172V14.5323H141.046Z" fill="#000052"/>
<path d="M108.605 53.4676H96V14.5323H109.004C112.819 14.5323 116.095 15.3118 118.833 16.8707C121.57 18.417 123.668 20.6413 125.125 23.5437C126.596 26.4334 127.331 29.8998 127.331 33.9429C127.331 37.9987 126.589 41.4841 125.106 44.3992C123.636 47.3143 121.507 49.5576 118.719 51.1292C115.93 52.6882 112.559 53.4676 108.605 53.4676ZM101.875 48.3346H108.281C111.247 48.3346 113.712 47.7769 115.677 46.6616C117.641 45.5335 119.112 43.9049 120.087 41.7756C121.063 39.6337 121.551 37.0228 121.551 33.9429C121.551 30.8884 121.063 28.2965 120.087 26.1673C119.124 24.038 117.686 22.422 115.772 21.3194C113.858 20.2167 111.482 19.6654 108.643 19.6654H101.875V48.3346Z" fill="#000052"/>
</svg>
